<svg id="Layer_1" data-name="Layer 1" xmlns="http://www.w3.org/2000/svg" xmlns:xlink="http://www.w3.org/1999/xlink" viewBox="0 0 1370.13 792"><defs><style>.cls-1{fill:#0d4f71;}.cls-2{fill:url(#linear-gradient);}.cls-3{fill:url(#linear-gradient-2);}.cls-4,.cls-7{fill:#fff;}.cls-4,.cls-5{opacity:0.2;}.cls-4{isolation:isolate;}.cls-6{fill:none;}</style><linearGradient id="linear-gradient" x1="387.09" y1="816.98" x2="386.09" y2="815.99" gradientTransform="matrix(496.38, 0, 0, -792, -191711.66, 646951.69)" gradientUnits="userSpaceOnUse"><stop offset="0" stop-color="#fff" stop-opacity="0.16"/><stop offset="1" stop-color="#fff" stop-opacity="0"/></linearGradient><linearGradient id="linear-gradient-2" x1="387.31" y1="816.93" x2="386.31" y2="815.94" gradientTransform="matrix(643.3, 0, 0, -613.95, -247845.06, 501506.92)" gradientUnits="userSpaceOnUse"><stop offset="0" stop-color="#fff" stop-opacity="0.2"/><stop offset="1" stop-color="#fff" stop-opacity="0"/></linearGradient></defs><title>bg_hero_2</title><path id="Path_152" data-name="Path 152" class="cls-1" d="M0,792S138.5,679.07,310,670.61s208.5,80.6,376,87.56S845.5,642.75,994,632.8s188.5,92.53,286,85.57,90-47.76,90-47.76V0H0Z" transform="translate(0 0)"/><path id="Path_196" data-name="Path 196" class="cls-2" d="M0,0H316C334,205.71,601.79,234.54,450,302,288,374,238,472,282,572c19.39,44.06,32.95,76.09,42.06,98.13-4.58.09-9.28.25-14.06.48C138.5,679.07,0,792,0,792Z" transform="translate(0 0)"/><path id="Path_197" data-name="Path 197" class="cls-3" d="M970,326c98-120-200-10-234-116-25.53-79.58,5-151.28,48.3-210h232.18C1068.31,55,1179.1,101.09,1314,92c27.56-1.86,45.6,3.18,56,13.76v83.67c-35,95.45-144.1,243.06-218,360.57-28.63,45.53-59.23,64-88.06,64C970,613.93,895,417.84,970,326Z" transform="translate(0 0)"/><circle id="Ellipse_68" data-name="Ellipse 68" class="cls-4" cx="496.5" cy="569.5" r="13.5"/><circle id="Ellipse_69" data-name="Ellipse 69" class="cls-4" cx="337.5" cy="60.5" r="15.5"/><circle id="Ellipse_70" data-name="Ellipse 70" class="cls-4" cx="1155" cy="53" r="8"/><g id="Path_155" data-name="Path 155" class="cls-5"><path class="cls-6" d="M68.2,379.27a12.25,12.25,0,0,1,5.51,20.56l-28.26,28A12.25,12.25,0,0,1,25,422.32L14.75,384.18a12.26,12.26,0,0,1,15-15Z" transform="translate(0 0)"/><path class="cls-7" d="M69.2,390a4.21,4.21,0,0,0-3-3L27.68,376.89a4.26,4.26,0,0,0-5.2,5.22l10.23,38.14a4.25,4.25,0,0,0,7.11,1.92l28.26-28A4.19,4.19,0,0,0,69.2,390M76.92,388a12.14,12.14,0,0,1-3.21,11.89l-28.25,28A12.26,12.26,0,0,1,25,422.32L14.75,384.18a12.26,12.26,0,0,1,15-15L68.2,379.27A12.14,12.14,0,0,1,76.92,388Z" transform="translate(0 0)"/></g><path id="Path_195" data-name="Path 195" class="cls-4" d="M1256.5,603a23.49,23.49,0,1,1,16.62-6.88A23.34,23.34,0,0,1,1256.5,603Zm0-40.29a16.79,16.79,0,1,0,16.79,16.79A16.81,16.81,0,0,0,1256.5,562.71Z" transform="translate(0 0)"/></svg>